<?xml version="1.0" encoding="UTF-8" standalone="no"?>
<!-- Created with Inkscape (http://www.inkscape.org/) -->

<svg
   width="81.432724mm"
   height="80.539825mm"
   viewBox="0 0 81.432724 80.539825"
   version="1.1"
   id="svg1"
   xml:space="preserve"
   inkscape:version="1.3.2 (091e20e, 2023-11-25, custom)"
   sodipodi:docname="logot.svg"
   xmlns:inkscape="http://www.inkscape.org/namespaces/inkscape"
   xmlns:sodipodi="http://sodipodi.sourceforge.net/DTD/sodipodi-0.dtd"
   xmlns="http://www.w3.org/2000/svg"
   xmlns:svg="http://www.w3.org/2000/svg"><sodipodi:namedview
     id="namedview1"
     pagecolor="#141414"
     bordercolor="#000000"
     borderopacity="0.25"
     inkscape:showpageshadow="2"
     inkscape:pageopacity="0.0"
     inkscape:pagecheckerboard="0"
     inkscape:deskcolor="#d1d1d1"
     inkscape:document-units="mm"
     showgrid="false"
     inkscape:zoom="1.4815911"
     inkscape:cx="93.818059"
     inkscape:cy="171.09984"
     inkscape:window-width="2560"
     inkscape:window-height="1476"
     inkscape:window-x="-12"
     inkscape:window-y="2508"
     inkscape:window-maximized="1"
     inkscape:current-layer="layer3" /><defs
     id="defs1" /><g
     inkscape:groupmode="layer"
     id="layer3"
     inkscape:label="Capa 2"
     transform="translate(-4.0180622,-3.1251593)"><path
       style="fill:#000000;stroke-width:0.264583"
       d="m 68.932088,16.161539 c 9.018318,7.053931 12.322056,10.982702 12.322056,10.982702 l 2.94658,5.268127 1.250063,4.107352 -5.268126,-3.839482 -1.964386,-0.44645 -0.892903,0.803611 1.607225,1.339355 2.678708,3.035869 2.321547,5.714576 0.357161,3.750191 -0.26787,5.535999 -1.250063,5.714576 -4.375224,7.857543 -5.446708,5.357416 c 0,0 2.857289,-7.053929 2.410839,-8.125415 -0.446453,-1.071483 -0.982194,-1.875094 -0.982194,-1.875094 l -1.250064,0.267869 -0.982192,4.821677 -2.321546,5.000254 c 0,0 -1.339356,3.482319 -1.785805,3.482319 -0.446453,0 -3.571611,2.857291 -3.571611,2.857291 l -3.839482,2.053675 -4.643094,1.428644 -2.410838,0.267872 5.000254,-5.089546 c 0,0 3.39303,-3.839483 3.125161,-3.482322 -0.267872,0.357161 -6.071738,0.982195 -6.071738,0.982195 l -3.839482,-0.803614 6.071737,-3.303738 4.285933,-3.571611 0.446452,-3.12516 -0.803613,-2.321547 -0.803611,-0.982194 -2.678708,1.517936 -0.446453,-1.160775 1.339356,-3.303738 0.803611,-3.125161 0.17858,-1.875094 0.625033,-2.50013 -1.875097,-0.17858 c 0,0 -4.464513,0.714322 -4.910963,0.892902 -0.446452,0.178581 -3.214451,1.250067 -3.214451,1.250067 l -1.964386,1.428644 -1.875094,2.321547 -1.875097,2.232255 -2.321547,0.625033 -1.696513,-0.714322 -0.803614,-0.892903 0.08929,-0.357161 -1.607224,-2.053677 2.321547,0.357161 -0.357161,-1.785805 2.053674,0.803613 0.178581,-1.339355 3.303741,-0.62503 1.250063,-1.517936 0.625031,-3.750191 0.535741,-4.107352 -0.267869,-3.660902 -3.571611,-2.321547 -5.982448,-0.267872 -1.696516,0.625034 -0.714323,2.767999 v 0.62503 l -1.160772,-0.62503 -0.714322,2.410836 -1.696516,-1.339353 0.267872,1.785805 1.517933,1.785805 0.982194,1.160772 -1.339355,-0.08929 -1.964385,-1.160774 -2.232256,-2.321547 -0.446452,-0.803611 -0.982192,0.535742 -1.428644,-3.303741 -1.250065,-2.410839 -0.535741,-1.875094 3.393031,0.178581 3.035869,-1.428644 3.928771,-1.875097 2.410836,-1.428644 1.875096,-0.26787 1.071484,-3.03587 3.393029,-3.21445 4.732385,-2.232256 3.750191,-1.517935 3.839483,-1.875095 2.857288,-2.410838 2.767997,-4.107352 3.214452,-5.268126 2.857288,5.178836 0.625031,3.839481 z"
       id="path2" /><path
       style="fill:#000000;stroke-width:0.264583"
       d="m 40.269911,19.197408 c -0.08929,-0.982193 -1.696514,-3.839482 -1.696514,-3.839482 L 36.162559,14.286443 31.430174,13.839992 28.394305,12.054186 26.429919,10.804122 24.286953,10.0898 18.036634,9.9112198 l -5.893157,0.3571612 -6.5181901,0.625032 -1.6072247,0.892903 0.1785805,0.892902 4.6430938,1.607225 4.0180625,0.714322 2.500127,-0.17858 v 0.714322 l 1.875096,0.625032 2.410837,-0.535742 -0.982193,3.21445 0.982193,1.250063 h 2.589418 l 2.053676,-0.892902 1.339354,-1.339354 -2.053676,2.678708 -1.964386,3.035869 c 0,0 3.750191,-2.321547 3.750191,-2.678708 0,-0.357161 2.94658,-1.428644 2.94658,-1.428644 h 3.482319 l 3.928771,0.357161 2.589419,0.535741 1.785805,0.535742 z"
       id="path3" /><path
       style="fill:#000000;stroke-width:0.264583"
       d="m 10.0898,32.055207 1.071483,-4.375224 1.250064,-3.660901 1.339354,-3.571611 1.339354,-1.964385 0.892903,-1.071484 0.892903,0.535742 -0.08929,1.428644 -1.160774,1.964386 -1.607225,2.589418 -1.339354,2.500127 z"
       id="path4" /><path
       style="fill:#000000;stroke-width:0.264583"
       d="m 7.2325118,45.091585 0.8036123,-5.268124 1.8750957,-3.839483 3.3930302,-4.285932 4.643094,-3.660902 3.21445,-2.410837 3.48232,-2.946579 2.768,-1.785805 3.125157,-0.982193 h 1.785806 l 1.517935,0.714322 -4.196643,2.946579 -4.553803,2.94658 -3.393031,4.285932 -3.035869,6.696769 -1.517934,4.553804 2.500127,-9.375478 0.535742,-2.500128 -0.714322,-0.535741 -1.875096,0.803613 -2.321547,1.160772 -3.30374,3.125161 -2.0536762,3.839482 z"
       id="path5" /><path
       style="fill:#000000;stroke-width:0.264583"
       d="m 33.12669,12.411347 c -0.357161,0 -2.500127,-0.982193 -2.500127,-0.982193 L 28.751466,9.8219296 27.233533,8.1254144 25.179856,6.7860605 23.751211,6.1610284 l -1.160773,-0.357161 2.142966,-0.8929026 4.910965,1.4286441 3.035869,1.607225 2.232257,1.6965152 0.08929,1.3393539 -0.714322,1.160774 z"
       id="path6" /><path
       style="fill:#000000;stroke-width:0.264583"
       d="m 38.662686,6.964641 -5.089546,-1.4286444 3.571611,-1.6965152 4.285935,-0.7143221 6.250318,0.08929 5.089546,0.2678708 5.089543,1.1607736 2.053678,1.0714831 -6.33961,-0.08929 -5.535996,-0.1785806 -5.803868,0.2678708 z"
       id="path7" /><path
       style="fill:#000000;stroke-width:0.264583"
       d="m 10.536252,49.198937 0.535741,3.035871 1.339354,4.910963 1.428645,4.018063 1.785805,4.107352 1.696515,3.125161 1.160774,2.232255 0.446451,0.625033 -10.6255421,0.62503 10.9827031,2.500128 4.018062,1.428644 4.553804,2.410838 5.625287,1.964386 6.696771,0.982194 8.036123,0.267869 -4.732385,-1.517933 -4.910963,-1.339355 -4.553804,-1.517933 -1.964386,-0.982194 -2.410838,-1.517936 2.500127,-2.500127 3.750191,-2.946577 3.660902,-2.94658 2.678708,-3.035869 1.785805,-2.678708 -4.464513,3.39303 -3.125161,1.517936 -3.482318,1.517933 -3.839483,1.160775 -2.589416,0.714322 -2.053677,0.08929 -2.410838,-0.44645 -1.428644,-1.517936 -2.142966,-2.232255 -1.785806,-3.393033 -2.410837,-3.750191 z"
       id="path8" /><path
       style="fill:#000000;stroke-width:0.264583"
       d="m 24.019082,67.146283 -1.517934,0.17858 -0.714322,-1.339355 0.17858,-2.94658 1.160774,-2.500127 0.982192,-3.750191 0.892903,-3.482319 0.535742,5.446705 -0.178581,2.410838 -0.17858,1.339353 0.535741,2.50013 0.267871,0.892902 -1.071483,0.982192 z"
       id="path9" /><path
       style="fill:#000000;stroke-width:0.264583"
       d="m 15.625797,70.271441 -1.875096,-0.714322 -1.696515,-1.517933 -1.607225,-2.053678 3.393031,0.892903 1.428644,0.714322 1.071483,1.250064 0.625032,1.250063 z"
       id="path10" /><path
       style="fill:#000000;stroke-width:0.264583"
       d="m 30.983724,74.735954 0.357161,-1.250064 2.857288,-1.160772 3.035869,-0.267872 4.018063,-0.357161 2.142966,0.08929 -3.750191,1.517933 -2.857291,1.339356 -1.696513,0.892902 -2.053677,0.26787 z"
       id="path11" /><path
       style="fill:#000000;stroke-width:0.264583"
       d="m 22.679728,76.700339 3.30374,1.696517 1.250065,5.268126 -2.678709,-3.035869 z"
       id="path12" /><path
       style="fill:#ffffff;fill-opacity:1;stroke-width:0.477262"
       d="m 197.86577,285.76048 c 8.73456,-8.84556 19.7656,-20.82465 19.7656,-21.46432 0,-0.11899 -1.9412,0.15659 -4.31378,0.6124 -2.37258,0.4558 -7.41471,1.20613 -11.20474,1.66739 l -6.89097,0.83865 -6.69258,-1.37276 c -3.68091,-0.75501 -6.69257,-1.4957 -6.69257,-1.64597 0,-0.15027 4.88597,-2.92821 10.85771,-6.17319 10.20855,-5.54723 11.34608,-6.30676 19.02621,-12.70388 l 8.1685,-6.8039 0.53257,-3.58078 c 1.19889,-8.06074 1.19006,-8.38613 -0.34925,-12.87113 -1.30965,-3.81585 -3.82772,-7.97246 -4.82973,-7.97246 -0.21965,0 -2.46177,1.19075 -4.98248,2.6461 -2.52072,1.45535 -4.75485,2.53996 -4.96475,2.41024 -0.2099,-0.12973 -0.64573,-1.05201 -0.96852,-2.04952 -0.55544,-1.71648 -0.45643,-2.13332 1.84771,-7.77943 2.75465,-6.75003 5.50001,-16.74154 5.96673,-21.71541 0.17241,-1.83746 0.8441,-5.46039 1.49265,-8.05096 0.64854,-2.59056 1.04337,-4.84563 0.87739,-5.01124 -0.16598,-0.16562 -2.80711,-0.29087 -5.86918,-0.27832 -12.18279,0.0499 -27.68756,4.54276 -35.59567,10.31466 -2.92515,2.13498 -5.16797,4.45959 -9.92747,10.28953 -3.38173,4.14229 -6.62961,8.01851 -7.21752,8.6138 -0.66813,0.67654 -2.65996,1.50723 -5.31222,2.21548 l -4.24328,1.1331 -3.41611,-1.55677 c -3.3282,-1.51671 -5.47863,-3.54444 -5.47863,-5.16604 0,-0.39201 -1.20382,-2.25127 -2.67515,-4.1317 -1.47133,-1.88043 -2.59549,-3.49862 -2.49812,-3.59599 0.0974,-0.0974 1.84069,0.0564 3.87406,0.34175 2.03337,0.28533 3.78598,0.42983 3.89469,0.32112 0.10872,-0.10871 -0.082,-1.53791 -0.42385,-3.17599 -0.34184,-1.63808 -0.55444,-2.97833 -0.47245,-2.97833 0.082,0 1.75977,0.62023 3.7284,1.37828 3.95817,1.52415 4.11766,1.45956 4.11766,-1.66775 0,-1.99589 0.28697,-2.12821 7.15892,-3.30088 4.92302,-0.84009 5.04801,-0.89374 7.09908,-3.04707 1.14832,-1.20556 2.37055,-2.62145 2.7161,-3.14644 0.73712,-1.11992 2.18633,-9.34014 3.82805,-21.71344 1.08539,-8.18044 1.1325,-9.34135 0.63915,-15.75161 -0.29293,-3.80616 -0.57951,-6.96974 -0.63684,-7.03018 -0.0573,-0.0604 -3.05181,-2.02289 -6.65439,-4.36101 -7.50879,-4.87331 -6.32683,-4.58666 -21.10254,-5.11782 -8.21071,-0.29516 -8.76618,-0.25773 -11.62081,0.78312 -1.88237,0.68635 -3.16254,1.46249 -3.4403,2.08578 -0.24331,0.54597 -1.04036,3.3807 -1.77122,6.2994 l -1.32885,5.30674 -1.80607,-0.92657 c -0.99333,-0.50961 -1.89957,-0.83306 -2.01386,-0.71878 -0.11428,0.11429 -0.79201,2.07634 -1.50606,4.36011 l -1.29827,4.15232 -3.08603,-2.39295 c -1.69732,-1.31613 -3.15549,-2.3235 -3.24038,-2.23862 -0.33405,0.33406 0.92261,6.72591 1.45806,7.4162 0.3133,0.40388 2.35399,2.82833 4.53488,5.38764 l 3.96525,4.6533 h -2.13744 c -3.40217,0 -9.08255,-3.67725 -14.1816,-9.1806 -2.2531,-2.43174 -4.376176,-4.95828 -4.717949,-5.61451 -0.341772,-0.65624 -0.678885,-1.26183 -0.749139,-1.34576 -0.07025,-0.0839 -0.977943,0.28113 -2.017087,0.81126 l -1.889354,0.96388 -2.055659,-4.86799 c -1.130613,-2.6774 -3.389507,-7.55259 -5.019765,-10.83377 -1.630258,-3.28117 -3.40354,-7.43189 -3.940626,-9.22382 l -0.976521,-3.25805 6.288289,0.32229 c 7.285388,0.37338 4.955929,1.11353 21.799301,-6.92634 6.1686,-2.94447 13.19156,-6.53258 15.60656,-7.97357 3.69512,-2.204815 4.95862,-2.699654 7.97342,-3.122699 l 3.58249,-0.502705 2.00402,-5.683319 2.00402,-5.683319 6.24947,-6.014687 6.24947,-6.014686 8.35208,-4.028853 c 4.59364,-2.215869 11.77717,-5.426762 15.96339,-7.135317 4.18622,-1.708554 11.05879,-4.77823 15.27238,-6.821502 6.74498,-3.270811 8.28882,-4.250903 12.91094,-8.196357 4.77469,-4.075687 5.71671,-5.171136 10.4073,-12.102359 2.83658,-4.191575 7.71898,-11.809017 10.84976,-16.92765 3.13079,-5.118632 5.88002,-9.5918208 6.10941,-9.9404188 0.29138,-0.4427911 2.01128,2.2639838 5.70662,8.9810618 l 5.28954,9.614876 1.1673,7.245838 c 0.88325,5.482693 1.07286,7.884571 0.77921,9.870779 -0.82935,5.609488 -1.31583,4.832259 7.44737,11.898532 11.86881,9.570502 22.97186,19.41016 31.24728,27.691725 l 7.41453,7.420027 5.43089,9.783863 c 4.81198,8.66889 5.69151,10.62474 7.71774,17.16245 1.25777,4.05822 2.23608,7.42936 2.17401,7.49142 -0.0621,0.0621 -4.40175,-3.02223 -9.64376,-6.854 -9.19093,-6.71832 -9.66549,-6.99707 -13.30373,-7.81416 l -3.77281,-0.84732 -1.83632,1.5159 -1.83632,1.51589 1.79104,1.60481 c 4.33451,3.88379 6.34595,5.92858 10.30525,10.47612 l 4.21885,4.84563 4.41503,10.86582 4.41504,10.86582 0.6179,7.39756 c 0.48497,5.80611 0.50282,9.57473 0.083,17.51775 -0.48964,9.26326 -0.73343,11.02366 -2.87913,20.78996 l -2.34421,10.66977 -8.20684,14.76604 -8.20684,14.76604 -9.6201,9.36885 c -5.29105,5.15288 -9.67858,9.31815 -9.75007,9.25617 -0.0715,-0.062 0.59803,-2.0229 1.48781,-4.3576 2.60559,-6.83679 5.9305,-17.35799 6.54714,-20.71745 l 0.57071,-3.10919 -2.00114,-3.98007 -2.00113,-3.98006 -2.2367,0.32754 c -1.23019,0.18015 -2.41631,0.50022 -2.63583,0.71126 -0.21951,0.21105 -1.23825,4.43398 -2.26385,9.3843 -1.83188,8.84197 -1.94811,9.18144 -6.59591,19.26407 -2.60214,5.64492 -5.62657,12.34126 -6.72096,14.88075 -2.19173,5.08586 -2.56466,5.54265 -7.40599,9.07146 -1.83745,1.3393 -4.8442,3.77499 -6.68166,5.41263 -2.29197,2.04272 -5.60985,4.19496 -10.56812,6.85529 -5.97881,3.2079 -8.69949,4.33311 -15.74964,6.51368 -7.62163,2.35734 -12.91564,3.50462 -16.37281,3.5482 -0.95566,0.012 0.65738,-1.83464 8.84575,-10.12708 z"
       id="path1"
       transform="matrix(0.26458333,0,0,0.26458333,4.0180622,3.1251593)" /><path
       style="fill:#ffffff;fill-opacity:1;stroke-width:0.477262"
       d="m 68.069837,75.288044 c 2.14775,-3.609288 6.220783,-9.615519 9.143056,-13.482645 4.916594,-6.506267 4.931675,-6.53455 1.986617,-3.724948 -1.835912,1.75147 -3.767462,2.977584 -6.578696,4.17604 -3.658235,1.559541 -4.359223,1.696586 -8.678074,1.696586 h -4.698375 l -1.702369,-2.077516 c -0.936302,-1.142634 -1.70171,-2.377549 -1.700908,-2.744256 8.01e-4,-0.366706 0.754393,-3.116768 1.674644,-6.111249 0.920252,-2.99448 1.57653,-5.541163 1.458398,-5.659294 -0.118127,-0.118131 -2.179063,0.216856 -4.579852,0.744416 l -4.36507,0.9592 -3.537824,-1.18949 C 43.205087,46.769967 42.953559,46.589286 42.953559,45.333544 V 43.98169 l -3.698778,0.230099 c -2.034329,0.126553 -4.078839,0.305756 -4.543357,0.398227 -0.464518,0.09247 -4.330338,-0.457445 -8.590712,-1.222036 C 20.451339,42.370522 16.071384,41.205795 9.7838663,39.04365 5.0589748,37.418859 1.0353672,35.862067 0.84251631,35.584113 0.64966533,35.306158 0.48858948,34.537702 0.48456998,33.876434 0.47863237,32.899613 1.0044702,32.384293 3.2883769,31.128709 6.0130487,29.630813 6.4716768,29.547238 18.202807,28.41088 c 21.023935,-2.036524 34.541238,-2.664252 47.420686,-2.202162 10.705898,0.384106 11.703743,0.497322 15.272377,1.732797 2.099952,0.727012 5.751004,2.541281 8.11345,4.031709 2.362446,1.490428 6.601967,4.052298 9.421157,5.693042 l 5.125803,2.983173 8.97532,0.886632 c 8.57532,0.847118 9.17916,0.975451 13.54905,2.879583 l 4.57372,1.99295 2.43599,5.073458 c 3.51969,7.330478 3.85526,8.489512 3.45088,11.919081 -0.18936,1.605994 -0.44899,3.024687 -0.57695,3.15265 -0.12797,0.127963 -1.61755,-0.189804 -3.31019,-0.70615 -8.95619,-2.732119 -24.30266,-4.530673 -35.769961,-4.19212 -6.221999,0.183695 -6.586651,0.252712 -10.629402,2.011836 -2.576082,1.120933 -4.779023,2.453782 -5.727141,3.465106 -1.457577,1.554746 -11.703323,8.752156 -12.458981,8.752156 -0.194575,0 -0.194026,-0.268459 0.0012,-0.596577 z"
       id="path13"
       transform="matrix(0.26458333,0,0,0.26458333,4.0180622,3.1251593)" /><path
       style="fill:#ffffff;fill-opacity:1;stroke-width:0.477262"
       d="M 105.01468,33.131149 C 100.48555,31.209556 95.512641,27.332244 90.943377,22.159932 89.401129,20.41414 86.384225,17.837727 84.068262,16.288638 80.115043,13.644428 73.468481,10.499759 71.832908,10.499759 c -1.453919,0 -0.300117,-0.781565 3.154976,-2.1371242 l 3.447287,-1.3524966 8.866538,2.5355204 C 97.575276,12.48354 105.22455,16.131269 112.24853,21.44211 c 4.07086,3.077977 4.15456,3.182195 4.45823,5.550939 0.27073,2.111775 0.14076,2.69339 -1.03787,4.644699 -1.49894,2.481601 -1.57958,2.533772 -4.5252,2.927813 -1.71833,0.229864 -2.80677,-0.02487 -6.12901,-1.434412 z"
       id="path14"
       transform="matrix(0.26458333,0,0,0.26458333,4.0180622,3.1251593)" /><path
       style="fill:#ffffff;fill-opacity:1;stroke-width:0.477262"
       d="m 121.85684,11.77811 c -4.77084,-1.359328 -8.78298,-2.5820307 -8.91587,-2.7171168 -0.13288,-0.1350861 2.58931,-1.5742751 6.04932,-3.1981984 5.78004,-2.712808 6.89168,-3.056934 13.68848,-4.237487 6.79606,-1.18042323 8.34832,-1.2788179 19.09047,-1.21010514 6.43111,0.0411369 16.31042,0.30567962 21.95404,0.58787274 9.43419,0.4717295 11.03038,0.6872617 19.80637,2.6744398 7.38184,1.6714982 10.3565,2.5759694 13.1247,3.9906831 l 3.57946,1.829321 -6.68166,0.021417 C 199.87723,9.5307147 189.99791,9.314664 181.5981,9.038823 170.54234,8.6757628 163.29504,8.685864 155.34871,9.0754084 l -10.97702,0.5381146 -6.71328,2.352165 c -3.69231,1.293691 -6.80644,2.336812 -6.9203,2.318047 -0.11386,-0.01877 -4.11043,-1.146296 -8.88127,-2.505625 z"
       id="path15"
       transform="matrix(0.26458333,0,0,0.26458333,4.0180622,3.1251593)" /><path
       style="fill:#ffffff;fill-opacity:1;stroke-width:0.477262"
       d="m 13.041655,154.15555 c 0.155218,-0.91873 0.745085,-4.78222 1.310817,-8.58555 1.026373,-6.90014 1.036655,-6.93117 4.743907,-14.31785 3.186924,-6.34993 4.603063,-8.52488 9.957585,-15.29317 6.020231,-7.60978 6.543691,-8.12759 14.715534,-14.55649 4.660289,-3.666316 11.59214,-9.028474 15.404113,-11.915908 3.811975,-2.887434 9.724137,-7.612325 13.138143,-10.499759 9.139501,-7.729838 14.839977,-11.193497 22.343745,-13.576251 7.569881,-2.403748 10.631101,-2.523725 14.848841,-0.581963 l 2.83634,1.305791 -7.84758,5.532255 c -4.31618,3.04274 -11.713412,8.025081 -16.438303,11.071868 l -8.590712,5.539614 -6.473063,8.240411 -6.473064,8.240412 -6.009909,13.36333 c -3.305453,7.34983 -6.120658,13.68548 -6.256013,14.07922 -0.169129,0.49199 -0.257883,0.51884 -0.283778,0.0858 -0.02072,-0.34653 1.233473,-5.39357 2.787103,-11.21565 1.55363,-5.82208 3.205541,-12.45077 3.670919,-14.73041 l 0.846132,-4.1448 -1.165291,-0.96989 c -0.640911,-0.53343 -1.41472,-0.97703 -1.719577,-0.98576 -0.750815,-0.0215 -7.146138,2.74228 -12.010118,5.19027 -3.232228,1.62675 -5.141909,3.11046 -10.23447,7.95161 -6.212682,5.90597 -6.289859,6.0057 -10.046022,12.98181 -2.081883,3.86657 -5.816705,11.96978 -8.299604,18.00715 -2.482899,6.03736 -4.632156,11.0844 -4.776126,11.21565 -0.14397,0.13124 -0.134767,-0.51306 0.02045,-1.43179 z"
       id="path16"
       transform="matrix(0.26458333,0,0,0.26458333,4.0180622,3.1251593)" /><path
       style="fill:#ffffff;fill-opacity:1;stroke-width:0.238631"
       d="m 69.745336,242.15069 c -0.127574,-0.16406 -0.741322,-1.27444 -1.363886,-2.46752 l -1.131933,-2.16924 0.358257,-5.58627 0.358256,-5.58627 2.173696,-4.63928 2.173696,-4.63928 2.759433,-10.6331 c 3.892011,-14.99732 4.082512,-15.68642 4.225941,-15.28639 0.07059,0.19687 0.527831,4.49223 1.016095,9.54523 0.875994,9.0656 0.884002,9.24577 0.604542,13.60196 -0.155766,2.42807 -0.453031,5.70887 -0.660589,7.29067 l -0.377378,2.87598 0.883066,4.16363 c 0.485686,2.28999 1.160257,5.16445 1.499046,6.38768 l 0.615981,2.22407 -1.88671,1.76624 c -2.182746,2.04336 -3.404733,2.55796 -7.375221,3.1058 -2.988261,0.41231 -3.582018,0.41938 -3.872292,0.0461 z"
       id="path17"
       transform="matrix(0.26458333,0,0,0.26458333,4.0180622,3.1251593)" /><path
       style="fill:#ffffff;fill-opacity:1;stroke-width:0.238631"
       d="m 150.33746,295.29855 -14.6758,-0.53815 -12.13599,-1.81359 -12.13598,-1.8136 -10.64568,-3.71473 -10.645681,-3.71474 -8.554686,-4.53514 -8.554683,-4.53513 -7.591829,-2.70552 -7.591827,-2.70553 -20.302247,-4.61703 c -20.261542,-4.60778 -20.298797,-4.61735 -18.581866,-4.7715 0.946209,-0.085 9.747327,-0.61956 19.558039,-1.18801 9.810713,-0.56845 17.837659,-1.11615 17.837659,-1.21711 0,-0.10096 -0.362366,-0.69389 -0.80526,-1.31762 -0.442892,-0.62373 -2.040788,-3.49649 -3.550878,-6.38393 -1.510092,-2.88743 -3.929518,-7.42408 -5.376501,-10.08143 -3.51322,-6.45194 -8.609894,-18.21252 -11.970632,-27.62225 -3.353971,-9.39078 -7.415936,-23.9914 -8.720959,-31.34724 -0.474149,-2.67256 -0.821825,-4.89947 -0.772613,-4.94868 0.04921,-0.0492 3.124591,6.6351 6.834178,14.85402 l 6.744703,14.94351 4.524684,7.03696 c 3.155168,4.90705 5.550583,8.99066 7.914114,13.4917 l 3.389432,6.45473 5.369195,5.62634 c 2.953057,3.09449 6.01688,6.30601 6.808497,7.13672 l 1.439302,1.51037 4.407155,0.83387 c 4.295024,0.81264 4.51037,0.82998 8.46388,0.6813 3.96668,-0.14918 4.162658,-0.18176 8.829342,-1.46785 2.62494,-0.72341 8.101519,-2.32284 12.170172,-3.55428 6.47664,-1.96025 8.24421,-2.60872 14.19854,-5.20904 3.74054,-1.63353 9.3527,-4.21025 12.47146,-5.72604 l 5.67048,-2.75599 7.88919,-5.99869 c 4.33906,-3.29928 7.93134,-5.95655 7.98285,-5.90503 0.0515,0.0515 -1.27176,2.1376 -2.9406,4.63577 -2.45351,3.67278 -3.99157,5.6263 -8.03606,10.20675 l -5.00181,5.66464 -8.2422,6.61676 c -4.53322,3.63921 -10.92681,8.72647 -14.20798,11.30502 -4.76819,3.74714 -6.8745,5.60009 -10.49262,9.23053 -2.921173,2.93112 -4.444736,4.62417 -4.295355,4.77318 0.722958,0.72118 9.565645,6.05229 12.401665,7.47675 4.56004,2.2904 17.79837,6.72459 30.18681,10.1111 7.49121,2.04781 26.08176,7.74237 26.46814,8.10759 0.0547,0.0517 -0.16008,0.0792 -0.47726,0.0612 -0.31718,-0.018 -7.1808,-0.27496 -15.25249,-0.57095 z"
       id="path18"
       transform="matrix(0.26458333,0,0,0.26458333,4.0180622,3.1251593)" /><path
       style="fill:#ffffff;fill-opacity:1;stroke-width:0.238631"
       d="m 40.151708,252.26707 -3.398429,-1.34669 -3.126855,-2.79724 c -2.345308,-2.09808 -3.83742,-3.70306 -5.969723,-6.42126 -1.563578,-1.99321 -2.797659,-3.66923 -2.742402,-3.72449 0.05526,-0.0553 2.80573,0.61095 6.112162,1.48045 5.222598,1.37341 6.376429,1.76486 8.790423,2.98222 2.696762,1.35996 2.837385,1.47051 4.767212,3.74765 1.985378,2.34269 4.344277,6.39352 3.935183,6.7577 -0.198725,0.1769 -3.950322,0.74161 -4.611196,0.6941 -0.196871,-0.0142 -1.887239,-0.63175 -3.756375,-1.37244 z"
       id="path19"
       transform="matrix(0.26458333,0,0,0.26458333,4.0180622,3.1251593)" /><path
       style="fill:#ffffff;fill-opacity:1;stroke-width:0.238631"
       d="m 82.418685,298.20611 -4.73058,-5.36293 -3.392255,-7.11604 c -1.86574,-3.91382 -3.356785,-7.1515 -3.313433,-7.19485 0.04335,-0.0434 2.749833,1.29194 6.014402,2.96731 l 5.935581,3.04614 2.226199,9.39388 c 1.224411,5.16664 2.173205,9.44688 2.108433,9.51165 -0.06477,0.0648 -2.246529,-2.29555 -4.848347,-5.24516 z"
       id="path20"
       transform="matrix(0.26458333,0,0,0.26458333,4.0180622,3.1251593)" /><path
       style="fill:#ffffff;fill-opacity:1;stroke-width:0.238631"
       d="m 105.95211,272.66313 c -4.23284,-2.25254 -4.05249,-1.95486 -3.04847,-5.03183 l 0.54285,-1.66366 5.36919,-2.16968 5.3692,-2.16968 12.88607,-1.12591 c 12.3159,-1.07609 17.35266,-1.30749 19.89284,-0.91394 1.02535,0.15886 0.93919,0.20241 -5.72714,2.89482 -6.90576,2.78911 -15.28686,6.62242 -20.84737,9.5351 l -3.1022,1.62498 -3.22152,0.40083 c -1.77183,0.22046 -3.48997,0.44279 -3.81809,0.49407 -0.40993,0.0641 -1.7538,-0.52259 -4.29536,-1.8751 z"
       id="path21"
       transform="matrix(0.26458333,0,0,0.26458333,4.0180622,3.1251593)" /><path
       style="fill:#ffffff;fill-opacity:1;stroke-width:0.238631"
       d="m 23.624458,107.21396 c 0,-0.13722 0.757322,-3.34979 1.682938,-7.13905 1.841942,-7.540472 4.625254,-16.096416 9.11784,-28.028373 l 2.478363,-6.582338 2.527482,-3.692591 c 2.046925,-2.990511 4.487148,-6.197239 5.661452,-7.439786 0.101533,-0.107434 0.86987,0.225995 1.707414,0.740953 l 1.522807,0.936287 -0.07839,2.70292 -0.07839,2.702919 -2.206495,3.715054 c -1.213572,2.043281 -3.605561,5.970117 -5.315531,8.726304 -4.237221,6.829697 -7.633809,13.34779 -12.621617,24.221035 -2.317932,5.053006 -4.2557,9.232036 -4.306151,9.286716 -0.05045,0.0547 -0.09173,-0.0128 -0.09173,-0.15005 z"
       id="path22"
       transform="matrix(0.26458333,0,0,0.26458333,4.0180622,3.1251593)" /></g></svg>
