<?xml version="1.0" encoding="UTF-8" standalone="no"?>
<!-- Created with Inkscape (http://www.inkscape.org/) -->

<svg
   width="106.81684mm"
   height="77.732033mm"
   viewBox="0 0 106.81684 77.732033"
   version="1.1"
   id="svg1"
   xml:space="preserve"
   inkscape:version="1.3.2 (091e20e, 2023-11-25, custom)"
   sodipodi:docname="videojuego.svg"
   xmlns:inkscape="http://www.inkscape.org/namespaces/inkscape"
   xmlns:sodipodi="http://sodipodi.sourceforge.net/DTD/sodipodi-0.dtd"
   xmlns:xlink="http://www.w3.org/1999/xlink"
   xmlns="http://www.w3.org/2000/svg"
   xmlns:svg="http://www.w3.org/2000/svg"><sodipodi:namedview
     id="namedview1"
     pagecolor="#ffffff"
     bordercolor="#000000"
     borderopacity="0.25"
     inkscape:showpageshadow="2"
     inkscape:pageopacity="0.0"
     inkscape:pagecheckerboard="0"
     inkscape:deskcolor="#d1d1d1"
     inkscape:document-units="mm"
     showgrid="false"
     inkscape:zoom="1.8672278"
     inkscape:cx="201.90359"
     inkscape:cy="146.47382"
     inkscape:window-width="4480"
     inkscape:window-height="2396"
     inkscape:window-x="-12"
     inkscape:window-y="-12"
     inkscape:window-maximized="1"
     inkscape:current-layer="layer1" /><defs
     id="defs1" /><g
     inkscape:label="Capa 1"
     inkscape:groupmode="layer"
     id="layer1"
     transform="translate(-51.563306,-109.64421)"><image
       width="107.27267"
       height="77.808662"
       preserveAspectRatio="none"
       id="image1"
       x="51.362236"
       y="109.59567" /><path
       style="fill:#000000"
       d="m 103.2629,187.31499 c -2.33119,-0.17003 -3.424897,-0.8191 -4.256289,-2.52595 -0.240601,-0.49395 -0.885696,-2.43474 -1.966708,-5.9169 -0.884767,-2.85001 -1.633422,-5.18228 -1.663679,-5.18282 -0.03026,-5.4e-4 -3.474205,1.52394 -7.653218,3.38774 -4.179013,1.8638 -7.609139,3.3778 -7.622502,3.36443 -0.01336,-0.0134 0.868018,-2.21173 1.958625,-4.88526 1.090607,-2.67353 1.972181,-4.87171 1.959054,-4.88484 -0.01313,-0.0131 -3.050675,0.67678 -6.750107,1.53312 -3.699431,0.85634 -6.732377,1.55005 -6.739879,1.54157 -0.0075,-0.008 1.445157,-1.84421 3.22813,-4.07941 1.782974,-2.2352 3.231947,-4.07473 3.21994,-4.08785 -0.01201,-0.0131 -5.708884,0.53164 -12.659726,1.21057 -6.950842,0.67893 -12.689521,1.22306 -12.752621,1.20918 -0.0631,-0.0139 4.741572,-3.68283 10.677048,-8.15323 5.935476,-4.4704 10.792711,-8.151 10.793855,-8.17911 0.0011,-0.0281 -3.976324,-1.79975 -8.838817,-3.93699 -4.862493,-2.13725 -8.815368,-3.9121 -8.784166,-3.94411 0.0312,-0.032 2.857079,-1.31354 6.279729,-2.84781 7.820892,-3.50589 7.789827,-3.49151 7.786891,-3.60421 -0.0025,-0.0941 -0.601315,-0.75944 -2.870037,-3.18859 -2.044106,-2.18864 -3.664911,-4.15435 -3.533658,-4.2856 0.08829,-0.0883 3.980671,-1.02681 5.869678,-1.41528 1.853126,-0.38109 3.956037,-0.75211 4.884933,-0.86186 l 0.496139,-0.0586 -0.0542,-0.30658 c -0.456748,-2.58346 -0.395476,-5.83977 0.173842,-9.23892 0.482312,-2.87966 1.271214,-5.52654 2.195442,-7.366 0.579194,-1.15275 0.496654,-1.11003 1.230369,-0.63676 0.344816,0.22242 0.950788,0.65462 1.346604,0.96043 0.933656,0.72136 3.539895,3.32605 4.652753,4.65 l 0.871382,1.03666 0.561099,-0.49404 c 0.308605,-0.27173 0.80208,-0.66808 1.096612,-0.88079 l 0.535513,-0.38675 0.610574,0.27825 c 0.874462,0.39851 3.148616,1.24721 4.287401,1.60004 2.208492,0.68425 4.662498,1.1807 7.260003,1.46868 1.990061,0.22065 9.780111,0.21885 11.789991,-0.003 3.91259,-0.43132 7.44472,-1.34387 10.97031,-2.83424 l 1.17936,-0.49855 0.4836,0.33962 c 0.26599,0.18679 0.7579,0.581 1.09315,0.87603 0.33525,0.29502 0.61825,0.52667 0.6289,0.51477 0.0106,-0.0119 0.25663,-0.30738 0.54665,-0.65663 2.17495,-2.61917 4.57339,-4.89183 6.29363,-5.96356 0.54223,-0.33782 0.67922,-0.39175 0.74732,-0.29421 0.0459,0.0657 0.30824,0.57664 0.58305,1.13544 1.10483,2.24657 1.97927,5.62555 2.42116,9.35567 0.27302,2.30465 0.18055,5.83609 -0.18748,7.1601 -0.0455,0.16368 0.006,0.18206 0.78267,0.28183 1.19395,0.1533 3.77251,0.63142 5.78435,1.07256 1.63756,0.35906 4.65532,1.10794 4.71824,1.17085 0.0485,0.0485 -0.92217,1.31908 -1.624,2.12565 -0.36468,0.4191 -1.51062,1.6764 -2.54654,2.794 -1.03592,1.1176 -1.987,2.15657 -2.11351,2.30882 l -0.23002,0.27682 0.96142,0.45666 c 0.83974,0.39887 3.75142,1.7091 11.22714,5.05213 1.08262,0.48413 1.96844,0.90109 1.9685,0.92658 6e-5,0.0255 -3.98028,1.79714 -8.8452,3.937 -8.21829,3.61486 -8.83497,3.90036 -8.6995,4.02744 0.0802,0.0752 4.94594,3.75145 10.81276,8.16938 5.86683,4.41792 10.61007,8.04354 10.54053,8.05694 -0.0695,0.0134 -5.79971,-0.52934 -12.73371,-1.20608 -6.93399,-0.67673 -12.62074,-1.21695 -12.6372,-1.20048 -0.0165,0.0165 1.42069,1.84955 3.19369,4.07352 1.77301,2.22397 3.21181,4.05379 3.19736,4.06626 -0.0145,0.0125 -3.03619,-0.67376 -6.71496,-1.52495 -3.67877,-0.85119 -6.70354,-1.53318 -6.72173,-1.51554 -0.0182,0.0176 0.85394,2.20577 1.93806,4.8625 1.08412,2.65674 1.95555,4.84601 1.93651,4.86505 -0.019,0.019 -3.45577,-1.49088 -7.63718,-3.35538 -4.18141,-1.86449 -7.62042,-3.37213 -7.64224,-3.35031 -0.0218,0.0218 -0.64893,1.99746 -1.39359,4.39032 -0.74466,2.39286 -1.49121,4.76976 -1.65901,5.28199 -0.75618,2.30835 -1.62905,3.29651 -3.28949,3.72395 -0.97755,0.25165 -3.12245,0.34188 -4.953,0.20837 z m 4.064,-1.73405 c 1.80908,-0.47969 2.9077,-1.55233 3.02517,-2.95361 l 0.0431,-0.51466 -0.33357,0.508 c -0.69184,1.05362 -1.90671,1.84083 -3.26033,2.11263 -0.8826,0.17722 -3.36781,0.17785 -4.13107,10e-4 -1.41157,-0.32697 -2.22663,-0.91596 -3.042171,-2.19836 l -0.269217,-0.42333 0.05281,0.381 c 0.226067,1.63084 1.103928,2.56877 2.814378,3.00697 0.82765,0.21203 1.74353,0.28499 3.19586,0.25459 0.93301,-0.0195 1.52597,-0.0738 1.905,-0.17429 z m 0.47845,-3.83406 c 1.6717,-0.36225 2.50973,-1.00659 3.22888,-2.48257 0.97631,-2.00379 1.36377,-3.55827 2.05459,-8.24297 0.32573,-2.20889 0.67653,-3.91949 1.05609,-5.14982 0.16055,-0.5204 0.52327,-1.76533 0.80604,-2.76652 1.05747,-3.74406 1.60496,-5.22472 2.48444,-6.71909 0.99729,-1.69454 2.28432,-3.15273 3.81918,-4.32709 0.99762,-0.76331 0.9948,-0.76034 0.53933,-0.5659 -1.63595,0.69841 -3.25632,2.17705 -4.60671,4.20375 -1.70957,2.56579 -3.03624,5.81823 -5.04217,12.36133 -0.37118,1.21074 -0.69265,2.23944 -0.71439,2.286 -0.0217,0.0466 -0.0221,-0.71543 -9.2e-4,-1.69333 0.0282,-1.29953 0.0828,-1.99445 0.20284,-2.58233 0.0903,-0.44239 0.15302,-0.81629 0.13933,-0.83091 -0.0137,-0.0146 -0.12861,0.19267 -0.25538,0.46062 -0.86478,1.82799 -1.3771,5.01541 -1.56328,9.72595 -0.0635,1.60701 -0.1218,2.25352 -0.24208,2.68502 -0.17415,0.6248 -0.59762,1.38499 -0.97034,1.74191 l -0.2399,0.22974 0.0692,-0.46567 c 0.10701,-0.72044 0.0616,-2.43249 -0.082,-3.09033 -0.15827,-0.72511 -0.41375,-1.41247 -0.69231,-1.86267 l -0.20956,-0.33866 -0.003,1.08307 c -0.003,1.04104 -0.16259,2.18131 -0.35721,2.54497 -0.0738,0.13795 -0.12793,0.0738 -0.39154,-0.46399 l -0.30587,-0.62405 -0.0574,0.44396 c -0.12912,0.99927 -0.27402,1.1081 -0.64896,0.48737 -0.12657,-0.20955 -0.2532,-0.381 -0.28139,-0.381 -0.0876,0 -0.33369,0.61476 -0.49278,1.23107 l -0.1521,0.58926 -0.10172,-0.381 c -0.18441,-0.69074 -0.34993,-1.15782 -0.46705,-1.31799 -0.10761,-0.14718 -0.13176,-0.13083 -0.35659,0.24139 -0.13264,0.2196 -0.28773,0.39927 -0.34464,0.39927 -0.17411,0 -0.27876,-0.30375 -0.27876,-0.80914 0,-0.59836 -0.12054,-0.537 -0.46927,0.23887 l -0.23728,0.52794 -0.12238,-0.29634 c -0.23707,-0.57405 -0.37753,-1.69334 -0.33334,-2.65633 0.0453,-0.98782 0.0415,-0.98999 -0.36434,-0.20533 -0.4902,0.94784 -0.62819,1.64836 -0.6304,3.20033 -10e-4,0.76835 0.026,1.53035 0.0602,1.69333 l 0.0622,0.29634 -0.3379,-0.381 c -0.51198,-0.57728 -0.91461,-1.45306 -1.01205,-2.20134 -0.04548,-0.34925 -0.123038,-1.57958 -0.172358,-2.73407 -0.177151,-4.14676 -0.687029,-7.28658 -1.456998,-8.97217 -0.143853,-0.31492 -0.275111,-0.55902 -0.291685,-0.54245 -0.01657,0.0166 0.04644,0.47805 0.140032,1.02549 0.128433,0.75125 0.168999,1.36187 0.16541,2.48978 l -0.0048,1.49442 -0.170497,-0.55033 c -1.814987,-5.85846 -2.504398,-7.86813 -3.463013,-10.09488 -1.756971,-4.08123 -3.738968,-6.61867 -6.203868,-7.94247 -0.363306,-0.19512 -0.67862,-0.3367 -0.700698,-0.31462 -0.02208,0.0221 0.255105,0.26237 0.615964,0.53397 2.353449,1.77135 4.091666,4.16486 5.182234,7.1359 0.193723,0.52776 0.635771,1.96257 0.982327,3.18846 0.346557,1.22588 0.743099,2.58478 0.881205,3.01976 0.547494,1.7244 0.812545,2.98871 1.277371,6.09313 0.620678,4.1453 1.06285,5.90976 1.942387,7.75099 0.821329,1.71938 1.888967,2.42847 4.111107,2.73047 1.01691,0.1382 4.11008,0.0471 5.00811,-0.1475 z m -19.461975,-8.89612 c 3.133242,-2.85782 5.681317,-5.21152 5.662388,-5.23045 -0.01893,-0.0189 -0.867992,-0.0926 -1.886805,-0.16369 l -1.852389,-0.12926 -2.507551,1.24756 -2.507552,1.24756 -1.683448,4.39706 c -0.925897,2.41839 -1.698729,4.44073 -1.717405,4.4941 -0.01868,0.0534 0.152773,-0.0748 0.381,-0.28491 0.228226,-0.21007 2.978519,-2.72015 6.111762,-5.57797 z m -4.177689,1.45813 c 1.148117,-2.5658 1.581916,-3.46717 1.716938,-3.56756 0.430178,-0.31984 2.62526,-1.61956 3.325612,-1.96912 0.978492,-0.48838 1.724416,-0.72408 2.659104,-0.84023 1.146865,-0.14251 1.129375,-0.0768 -0.222227,0.83474 -2.154593,1.4531 -4.3534,3.19577 -6.306976,4.99861 -0.534403,0.49317 -1.100612,1.00447 -1.258243,1.13622 l -0.2866,0.23956 z m 42.283854,-0.0388 -1.70098,-4.44618 -2.509,-1.24828 -2.50899,-1.24828 -1.85239,0.12926 c -1.01881,0.0711 -1.86767,0.14456 -1.88635,0.16324 -0.0339,0.0339 12.10371,11.14521 12.13972,11.11325 0.0104,-0.009 -0.74647,-2.01762 -1.68201,-4.46301 z m -1.09822,0.0425 c -2.40473,-2.2287 -4.50186,-3.91072 -6.9108,-5.54286 -0.86417,-0.58549 -1.17047,-0.8349 -1.07185,-0.87274 0.2064,-0.0792 1.47395,0.0986 2.12704,0.29832 0.76825,0.23497 1.93096,0.82407 3.36753,1.70617 0.65193,0.40031 1.25311,0.77823 1.33594,0.83982 0.13491,0.1003 0.56812,1.00033 1.71396,3.56084 0.20318,0.45402 0.35776,0.8255 0.34351,0.8255 -0.0142,0 -0.42165,-0.36677 -0.90533,-0.81505 z m -19.79149,-1.8314 c 1.02627,-1.58572 1.80361,-3.3749 1.89717,-4.36669 l 0.0453,-0.47986 -0.20781,0.53962 c -0.32854,0.85311 -0.7645,1.41139 -1.51022,1.93393 -0.36366,0.25483 -0.70117,0.538 -0.75002,0.62926 -0.0859,0.16052 -0.0942,0.15903 -0.25526,-0.0457 -0.0915,-0.11639 -0.38867,-0.3466 -0.66026,-0.51158 -0.79222,-0.48125 -1.31913,-1.13826 -1.66432,-2.07525 -0.20294,-0.55087 -0.14415,0.0639 0.0938,0.98093 0.24574,0.94698 0.78517,2.14538 1.34071,2.97853 0.40633,0.60936 0.96053,1.28562 1.05277,1.28463 0.0313,-3.4e-4 0.30947,-0.39086 0.61816,-0.86784 z m -22.85692,-5.12601 c 7.417173,-3.63095 9.420204,-4.64426 9.274062,-4.69164 -0.102522,-0.0332 -1.972573,-0.40691 -4.155669,-0.83037 l -3.969267,-0.76993 -0.814185,0.4917 c -1.775111,1.07202 -3.597348,2.50486 -4.838023,3.80419 -0.979904,1.02623 -1.837214,2.08587 -3.55351,4.39218 -1.835968,2.46711 -1.774962,2.37748 -1.562866,2.29609 0.08745,-0.0335 4.416203,-2.14505 9.619458,-4.69222 z m -6.543667,1.18775 c 0.04416,-0.0825 0.248092,-0.37779 0.453174,-0.65616 1.186143,-1.61003 2.887546,-2.96549 6.351841,-5.06034 l 1.333689,-0.80647 2.617656,0.352 c 1.43971,0.19361 2.636339,0.37106 2.659175,0.39435 0.02284,0.0233 -2.381406,1.09894 -5.342759,2.39036 -2.961353,1.29142 -5.396802,2.33551 -5.412108,2.3202 -0.01531,-0.0153 1.087081,-0.7451 2.449748,-1.62175 2.607846,-1.67774 2.858577,-1.85806 2.858577,-2.05582 0,-0.45696 -2.254798,0.84705 -5.846788,3.38135 -1.178922,0.83178 -2.156771,1.51232 -2.172998,1.51232 -0.01623,0 0.0066,-0.0675 0.05079,-0.15004 z m 60.377657,3.41355 c 0,-0.0669 -1.16729,-1.97447 -1.59773,-2.61105 -0.84004,-1.24234 -1.67963,-2.24963 -2.84066,-3.40803 -1.46685,-1.46354 -2.91134,-2.619 -5.64735,-4.51735 l -0.64542,-0.44781 -4.05358,0.78394 c -2.22948,0.43117 -4.08302,0.80903 -4.119,0.83968 -0.0543,0.0463 18.64451,9.36705 18.84024,9.39126 0.0349,0.004 0.0635,-0.009 0.0635,-0.0306 z m -4.445,-4.25446 c -2.87863,-2.05255 -5.66829,-3.81487 -6.2927,-3.97531 -0.25545,-0.0656 -0.38742,0.0642 -0.24811,0.24413 0.0584,0.0754 1.32535,0.92554 2.81548,1.88918 1.49013,0.96365 2.66614,1.73811 2.61334,1.72102 -0.43643,-0.14124 -10.93665,-4.77476 -10.90128,-4.8105 0.0254,-0.0256 1.2147,-0.2059 2.64301,-0.40065 l 2.59693,-0.35408 1.143,0.68702 c 3.23651,1.94536 4.9198,3.21264 6.04469,4.55081 0.55692,0.6625 1.03147,1.33798 0.97387,1.3862 -0.0185,0.0154 -0.64316,-0.40657 -1.38823,-0.93782 z M 87.513871,153.37406 c -5.67e-4,-0.0264 -2.400442,-0.8627 -5.333055,-1.85837 -3.711514,-1.26013 -5.364476,-1.78516 -5.438802,-1.72753 -0.05873,0.0455 -4.907378,3.69452 -10.774778,8.10885 -5.8674,4.41432 -10.739351,8.09304 -10.826559,8.17493 -0.08721,0.0819 7.161318,-2.73082 16.107834,-6.25047 8.946515,-3.51964 16.265928,-6.42098 16.26536,-6.44741 z m -24.636968,7.34317 c 0.283657,-0.29445 13.848599,-10.09425 13.967978,-10.09097 0.183625,0.005 7.368022,2.596 7.368022,2.65718 0,0.0541 -9.495343,3.40244 -9.535314,3.36247 -0.01303,-0.013 1.126958,-0.70891 2.53331,-1.5464 1.979985,-1.1791 2.557004,-1.56056 2.557004,-1.69044 0,-0.11995 -0.05093,-0.16258 -0.178768,-0.14964 -0.228153,0.0231 -2.160839,0.92807 -6.425232,3.00865 -3.67665,1.79382 -4.787792,2.31724 -4.656667,2.19361 0.04657,-0.0439 1.703917,-1.19241 3.683,-2.55223 1.979083,-1.35981 3.703108,-2.57118 3.831167,-2.69193 0.253925,-0.23943 0.309793,-0.52653 0.10246,-0.52653 -0.269151,0 -1.351189,0.65055 -7.512389,4.51665 -2.656293,1.6668 -3.741012,2.34099 -5.649905,3.51161 -0.191517,0.11744 -0.199577,0.11725 -0.08467,-0.002 z m 91.261677,5.15513 c -10.08604,-7.60891 -21.35311,-16.07535 -21.43455,-16.1066 -0.10353,-0.0397 -10.53825,3.47436 -10.66345,3.59112 -0.0586,0.0547 32.1134,12.77149 32.352,12.78797 0.0649,0.004 -0.0494,-0.11814 -0.254,-0.27249 z m -8.03434,-5.29784 c -0.61324,-0.3903 -10.19974,-6.36781 -11.19412,-6.97991 -1.06757,-0.65716 -1.5351,-0.90361 -1.71418,-0.90361 -0.20732,0 -0.15147,0.28708 0.10246,0.52668 0.12806,0.12083 1.85209,1.33239 3.83117,2.69236 1.97908,1.35996 3.63643,2.5084 3.683,2.55207 0.1316,0.12342 -0.98662,-0.40343 -4.65667,-2.19403 -4.26439,-2.08058 -6.19708,-2.98557 -6.42523,-3.00865 -0.1278,-0.0129 -0.17877,0.0297 -0.17877,0.14952 0,0.12969 0.57831,0.51237 2.55606,1.69139 1.40583,0.83808 2.54582,1.53401 2.53331,1.54652 -0.0393,0.0393 -9.53437,-3.31019 -9.53437,-3.36342 0,-0.0612 7.1844,-2.65214 7.36802,-2.65718 0.10847,-0.003 13.59675,9.72904 13.96496,10.07594 0.19059,0.17956 0.0825,0.13843 -0.33564,-0.12768 z m -44.71938,2.40348 c -0.0594,-1.0941 -0.0546,-1.86664 0.0171,-2.73867 l 0.0999,-1.21466 -0.31698,-0.46024 c -0.17433,-0.25312 -0.43531,-0.56016 -0.57994,-0.6823 -0.32583,-0.27514 -1.045074,-0.61719 -1.300144,-0.6183 -0.185984,-8.1e-4 -0.1905,0.0211 -0.1905,0.92438 0,1.75537 0.286193,2.98381 1.027124,4.40879 0.38498,0.74041 1.23281,2.00373 1.29831,1.93456 0.0154,-0.0163 -0.009,-0.71536 -0.0548,-1.55356 z m 7.45567,0.98766 c 1.27866,-1.72481 1.87132,-3.55813 1.87254,-5.79249 4.9e-4,-0.88782 -0.004,-0.91015 -0.19,-0.90934 -0.25507,10e-4 -0.97432,0.34316 -1.30014,0.6183 -0.14464,0.12214 -0.40698,0.43116 -0.58298,0.6867 l -0.32,0.46463 0.10161,1.19197 c 0.0931,1.09158 0.084,1.84283 -0.0441,3.66274 -0.0254,0.36089 -0.0281,0.65617 -0.006,0.65617 0.0221,0 0.23319,-0.26041 0.46913,-0.57868 z m -6.06919,-5.25937 c -0.10966,-0.14755 -0.25623,-0.22382 -0.46425,-0.24159 -0.45482,-0.0389 -0.60707,0.23609 -0.54444,0.98322 0.054,0.64428 0.25723,1.21538 0.71786,2.01742 l 0.31673,0.55149 0.0672,-1.54746 c 0.0628,-1.4456 0.0566,-1.56166 -0.0931,-1.76308 z m 1.62288,0.18655 c -0.13794,-0.22042 -0.28653,-0.23795 -0.60636,-0.0716 -0.63415,0.32995 -0.8369,0.93122 -0.54019,1.60199 0.0952,0.21516 0.39471,0.64939 0.66564,0.96496 l 0.49259,0.57376 0.0538,-1.43933 c 0.0434,-1.16168 0.0308,-1.47608 -0.0654,-1.62983 z m 2.1484,1.63768 c 0.0757,-0.14402 0.14025,-0.46473 0.14345,-0.7127 0.005,-0.41498 -0.0191,-0.47371 -0.30753,-0.73818 -0.43511,-0.39897 -0.72644,-0.46093 -0.93832,-0.19957 -0.13805,0.17029 -0.15634,0.28427 -0.11272,0.70252 0.0286,0.27459 0.0521,0.93527 0.0521,1.46818 v 0.96892 l 0.51271,-0.61366 c 0.28199,-0.33751 0.57464,-0.73149 0.65034,-0.87551 z m 1.30909,-0.0925 c 0.0923,-0.23283 0.18855,-0.69444 0.21388,-1.0258 0.0414,-0.54129 0.0272,-0.62133 -0.13965,-0.78816 -0.24781,-0.24781 -0.65299,-0.20914 -0.87011,0.083 -0.14973,0.20151 -0.15669,0.32287 -0.10112,1.7615 l 0.0597,1.54508 0.33474,-0.57616 c 0.18411,-0.31689 0.41027,-0.76666 0.50258,-0.9995 z m -0.99047,-4.13735 c 1.29248,-0.32305 3.90916,-1.27593 7.14036,-2.60022 0.17096,-0.0701 0.19154,-0.12376 0.1522,-0.39706 -0.18125,-1.25927 -0.11938,-2.78792 0.15672,-3.87203 0.23207,-0.91122 0.82771,-1.99008 1.49066,-2.69995 1.03903,-1.11258 2.31395,-1.85422 4.33044,-2.51908 2.91602,-0.96144 6.61454,-1.44446 12.93395,-1.68916 4.4677,-0.173 8.94192,0.0538 15.25815,0.77352 1.20835,0.13768 2.35581,0.24837 2.54992,0.24597 0.34836,-0.004 0.34111,-0.0104 -0.56014,-0.46787 -1.27648,-0.64799 -2.95453,-1.39161 -6.19893,-2.74702 -4.61075,-1.92622 -6.70837,-2.94109 -8.46667,-4.09633 -1.0218,-0.67135 -2.39611,-1.78666 -2.66242,-2.16065 l -0.16954,-0.2381 0.83436,-0.38725 c 1.57811,-0.73246 3.18854,-1.19524 7.10222,-2.0409 2.37692,-0.5136 4.18441,-0.98895 3.99741,-1.05128 -0.0671,-0.0224 -1.94991,-0.43062 -4.18395,-0.9072 l -4.06188,-0.86651 -1.72469,1.13374 c -0.94858,0.62355 -1.73888,1.13373 -1.75623,1.13373 -0.0173,0 0.13456,-0.35242 0.33757,-0.78316 0.97407,-2.06675 1.37636,-4.67896 1.2863,-8.3525 -0.0486,-1.98022 -0.16044,-3.2163 -0.4108,-4.538 l -0.11227,-0.59267 -0.0511,1.778 c -0.0663,2.30462 -0.25943,3.49212 -0.86074,5.29167 l -0.26876,0.80433 -0.0561,-0.59266 c -0.0596,-0.62908 -0.19086,-1.18766 -0.32832,-1.397 -0.057,-0.0868 -0.0838,0.22464 -0.0847,0.98374 -10e-4,1.14999 -0.15465,2.30458 -0.40337,3.03792 l -0.14358,0.42333 -0.0625,-0.80433 c -0.11128,-1.43199 -0.43623,-2.96506 -0.57362,-2.70632 -0.0362,0.0682 -0.0911,0.60024 -0.12197,1.18232 -0.0738,1.39177 -0.26668,2.6676 -0.52345,3.46267 -0.3855,1.19363 -0.41884,1.16869 -0.41759,-0.3123 0.001,-1.2039 -0.0875,-2.37028 -0.1734,-2.2844 -0.0185,0.0185 -0.18678,0.78227 -0.37404,1.69734 -0.32039,1.56566 -0.57722,2.45898 -0.80085,2.78567 -0.0748,0.10923 -0.0891,-0.1 -0.0623,-0.90685 0.035,-1.05069 -0.0254,-1.81746 -0.14316,-1.81746 -0.0346,0 -0.14762,0.26332 -0.25128,0.58516 -0.40451,1.25597 -1.44124,3.12224 -2.10086,3.78185 -0.16551,0.16552 -0.2876,0.31287 -0.2713,0.32745 0.2484,0.22216 1.46691,0.67345 2.18863,0.81058 0.51153,0.0972 2.38713,0.11931 2.84432,0.0335 0.15859,-0.0298 0.28815,-0.0213 0.28792,0.0188 -2.3e-4,0.0401 -0.14311,0.25919 -0.3175,0.48685 -0.43571,0.56879 -1.20551,1.0075 -2.47607,1.41109 -2.07895,0.66038 -2.81579,1.04564 -3.73651,1.95367 -0.33308,0.32848 -0.57548,0.52705 -0.53867,0.44127 0.0368,-0.0858 0.0846,-0.63455 0.10623,-1.2195 0.0627,-1.69606 -0.16896,-2.35281 -1.64954,-4.67664 -1.21335,-1.90441 -1.52062,-2.69603 -1.59608,-4.11188 -0.0382,-0.71594 -0.0363,-0.72454 0.0863,-0.41013 0.0689,0.17663 0.20548,0.43381 0.30353,0.5715 0.48153,0.67626 0.89212,0.13138 3.38406,-4.49097 2.9782,-5.52432 4.14473,-7.35684 7.3022,-11.47111 0.11751,-0.15311 0.12588,-0.21091 0.0408,-0.28155 -0.2624,-0.21777 -4.23974,3.55899 -6.03063,5.72649 -1.75444,2.1234 -3.0149,4.01141 -4.13618,6.1955 -0.37056,0.72178 -0.68181,1.32313 -0.69167,1.33633 -0.01,0.0132 -0.29923,-0.0525 -0.64304,-0.14602 -1.06185,-0.28881 -2.26023,-0.44092 -3.46144,-0.43936 -1.7497,0.002 -3.01197,0.22781 -5.35129,0.95617 -3.79709,1.18225 -4.18469,1.26048 -6.52469,1.31694 -2.68175,0.0647 -3.57601,-0.0765 -6.793021,-1.07238 -3.287693,-1.0178 -4.256075,-1.20648 -6.176653,-1.20347 -1.164599,0.002 -2.382912,0.15918 -3.423123,0.4421 -0.343811,0.0935 -0.634729,0.15922 -0.646487,0.14602 -0.01176,-0.0132 -0.237448,-0.45631 -0.501536,-0.98468 -2.09444,-4.19048 -5.430591,-8.29891 -9.56833,-11.78327 -0.565902,-0.47654 -0.754194,-0.59377 -0.809627,-0.50408 -0.04576,0.074 -0.01996,0.18485 0.07043,0.3024 3.119217,4.05649 4.344458,5.97963 7.262752,11.39967 2.069482,3.84357 2.686817,4.80563 3.083671,4.80563 0.179906,0 0.456702,-0.35651 0.638092,-0.82186 0.121756,-0.31235 0.124049,-0.30029 0.08382,0.44086 -0.0755,1.39091 -0.448871,2.33517 -1.657183,4.191 -1.376331,2.11388 -1.647661,2.89522 -1.585879,4.56679 0.02162,0.58495 0.0709,1.13758 0.109518,1.22807 0.03861,0.0905 -0.174818,-0.0851 -0.474295,-0.39014 -0.923318,-0.94055 -1.660566,-1.33242 -3.761837,-1.99954 -1.314089,-0.4172 -2.077236,-0.849 -2.518407,-1.42492 -0.374529,-0.48893 -0.392347,-0.57796 -0.101035,-0.50485 0.34916,0.0876 2.40815,0.064 2.915775,-0.0334 0.724834,-0.13917 1.941129,-0.59015 2.188633,-0.81151 0.0163,-0.0146 -0.10579,-0.16193 -0.271308,-0.32745 -0.659617,-0.65961 -1.696345,-2.52588 -2.100857,-3.78185 -0.103656,-0.32184 -0.216731,-0.58516 -0.251279,-0.58516 -0.117741,0 -0.178139,0.76677 -0.143159,1.81746 0.02803,0.84208 0.01456,1.01977 -0.06837,0.90137 -0.201105,-0.28712 -0.475699,-1.25686 -0.804711,-2.84185 -0.183204,-0.88258 -0.347622,-1.61921 -0.365372,-1.63696 -0.08581,-0.0858 -0.172799,1.0939 -0.168979,2.29154 0.0048,1.49009 -0.03022,1.51557 -0.42072,0.30644 -0.254568,-0.78823 -0.445832,-2.05773 -0.521686,-3.46267 -0.03143,-0.58208 -0.08555,-1.11164 -0.120263,-1.17679 -0.141201,-0.26499 -0.463633,1.24409 -0.559213,2.61727 -0.05953,0.85522 -0.06603,0.87754 -0.177009,0.60735 -0.244197,-0.59455 -0.373871,-1.4666 -0.42251,-2.84135 -0.03754,-1.06106 -0.07335,-1.38776 -0.139224,-1.27005 -0.141505,0.25286 -0.307471,1.05286 -0.31393,1.51324 l -0.0059,0.42333 -0.170108,-0.41949 c -0.619288,-1.52719 -0.924896,-3.2699 -0.995455,-5.67651 -0.05386,-1.8372 -0.05608,-1.85456 -0.162315,-1.27 -0.391603,2.15488 -0.563957,5.96285 -0.360598,7.967 0.19728,1.94425 0.583649,3.55972 1.184944,4.95443 0.186214,0.43193 0.330118,0.79378 0.319788,0.80411 -0.01033,0.0103 -0.786104,-0.48859 -1.723941,-1.10871 l -1.705157,-1.12749 -3.713462,0.79421 c -2.042404,0.43681 -3.923012,0.8382 -4.179128,0.89197 l -0.465667,0.0978 0.338667,0.11903 c 0.52516,0.18457 2.109571,0.57028 4.106333,0.99964 2.152163,0.46278 3.600215,0.81773 4.523338,1.10876 0.823731,0.2597 2.248986,0.82138 2.744615,1.08163 l 0.367619,0.19303 -0.536953,0.53626 c -1.661458,1.65932 -4.438607,3.25157 -9.088286,5.21067 -5.051431,2.12838 -6.191356,2.62576 -7.451342,3.25116 -1.648886,0.81845 -1.724705,0.80324 1.952982,0.39171 7.447779,-0.8334 12.456982,-0.98195 18.537027,-0.54973 9.972487,0.70892 14.238658,2.72176 15.155417,7.15054 0.148985,0.71973 0.194833,2.41254 0.08959,3.30781 l -0.0604,0.51381 0.364569,0.10922 c 0.200514,0.0601 1.070228,0.39454 1.932698,0.74326 2.894957,1.17049 4.541537,1.71191 6.097787,2.00502 0.50615,0.0953 2.02005,-0.0291 2.83634,-0.23314 z m -2.65678,-2.00667 c -1.59028,-0.28189 -3.08149,-1.19706 -5.265727,-3.23164 -0.625256,-0.58241 -1.218662,-1.14955 -1.318679,-1.2603 l -0.181848,-0.20137 1.055805,-1.84057 1.055804,-1.84058 0.486105,0.65561 c 0.26736,0.36059 0.61042,0.76022 0.76237,0.88808 l 0.27627,0.23246 3.57067,0.0179 c 1.96387,0.01 3.69674,0.0148 3.85082,0.0111 0.35102,-0.009 0.64378,-0.27611 1.26367,-1.15494 0.25617,-0.36317 0.47461,-0.64892 0.48541,-0.635 0.12459,0.16059 2.02108,3.50322 2.0497,3.61268 0.0533,0.20381 -2.40752,2.59065 -3.406,3.3036 -0.81317,0.58064 -2.03826,1.20044 -2.67237,1.352 -0.5875,0.14043 -1.50027,0.18172 -2.012,0.091 z M 96.804685,148.5 c -0.152743,-1.40103 -1.142868,-3.21975 -2.003648,-3.68043 l -0.199619,-0.10683 0.170698,0.24263 c 0.415986,0.59129 0.671063,1.45613 0.557526,1.89029 -0.04144,0.15847 -0.07925,0.1272 -0.287786,-0.23793 -0.321674,-0.56323 -1.2354,-1.45418 -2.01934,-1.969 -2.320899,-1.52417 -6.443502,-2.68448 -10.079613,-2.83693 -1.300841,-0.0545 -1.62855,-0.12808 -1.759573,-0.39487 -0.05085,-0.10354 -0.110069,-0.79786 -0.131594,-1.54293 -0.02455,-0.84974 -0.106727,-1.72942 -0.220475,-2.36012 -0.09973,-0.553 -0.162705,-1.02408 -0.139932,-1.04686 0.02277,-0.0228 0.193395,0.19376 0.379163,0.48118 0.438751,0.67883 0.908124,2.10587 1.063856,3.23444 0.06104,0.44233 0.144883,0.49256 0.825385,0.49454 1.81883,0.005 7.447719,1.23495 10.196128,2.2274 2.070141,0.74752 3.292006,1.63038 3.832389,2.76909 0.198294,0.41785 0.220357,0.5613 0.214863,1.397 -0.0045,0.69008 -0.04976,1.06293 -0.174583,1.43933 l -0.168461,0.508 z m 15.889485,-0.0847 c -0.11513,-0.36492 -0.16006,-0.7584 -0.15952,-1.397 6.6e-4,-0.7808 0.0276,-0.94568 0.22099,-1.35467 0.53801,-1.13755 1.76096,-2.02137 3.83164,-2.76909 2.74841,-0.99245 8.3773,-2.22211 10.19613,-2.2274 0.73661,-0.002 0.74371,-0.009 0.9017,-0.87409 0.19911,-1.09031 0.60767,-2.26717 0.99523,-2.86679 0.18154,-0.28088 0.3487,-0.49205 0.37147,-0.46928 0.0228,0.0228 -0.0402,0.49386 -0.13993,1.04686 -0.11375,0.6307 -0.19593,1.51038 -0.22048,2.36012 -0.0215,0.74507 -0.0803,1.43857 -0.13062,1.54112 -0.12825,0.26137 -0.49047,0.36387 -1.28634,0.36399 -0.9401,1.4e-4 -2.72694,0.21649 -4.19954,0.50848 -4.14402,0.8217 -7.29513,2.45904 -8.39045,4.35975 -0.21212,0.36809 -0.24561,0.39571 -0.25659,0.21166 -0.0426,-0.71336 0.12559,-1.31011 0.52867,-1.87619 l 0.18519,-0.26007 -0.19962,0.10683 c -0.35137,0.18805 -0.96387,0.88424 -1.24961,1.42034 -0.35956,0.6746 -0.59674,1.35342 -0.73052,2.09076 l -0.10753,0.59267 z m -15.351568,-4.70639 c -0.631042,-0.12381 -1.196597,-0.33328 -2.080699,-0.77066 -0.942831,-0.46643 -1.160959,-0.62491 -0.762,-0.55363 0.1397,0.025 0.808094,0.11178 1.48532,0.19293 1.158842,0.13885 1.269053,0.13914 1.872328,0.005 0.742228,-0.16513 1.11556,-0.38381 2.089322,-1.22383 0.388097,-0.3348 0.824527,-0.6702 0.969837,-0.74534 0.31537,-0.16308 1.18523,-0.24626 1.6396,-0.15677 l 0.32559,0.0641 -0.47716,0.16232 c -0.58052,0.19747 -1.18091,0.68217 -1.03328,0.83417 0.12741,0.13118 1.35425,-0.0236 1.73093,-0.21841 0.4206,-0.2175 0.39198,-0.0665 -0.0722,0.38087 -0.46747,0.45059 -0.82942,0.59612 -1.48451,0.59688 -0.5136,6e-4 -0.77479,0.11198 -1.80669,0.77041 -0.781785,0.49884 -1.446586,0.76652 -1.849705,0.74479 -0.09463,-0.005 -0.340634,-0.0423 -0.546683,-0.0828 z m 13.902388,-0.0266 c -0.19667,-0.0639 -0.65387,-0.30553 -1.016,-0.53703 -1.11272,-0.71134 -1.46087,-0.86824 -1.92775,-0.86876 -0.76282,-8.5e-4 -1.31934,-0.25451 -1.74464,-0.79519 -0.22766,-0.28941 -0.16624,-0.35583 0.16882,-0.18256 0.37668,0.19479 1.60352,0.34959 1.73093,0.21841 0.15083,-0.15531 -0.44509,-0.6275 -1.02023,-0.8084 -0.44422,-0.13973 -0.46531,-0.15746 -0.27407,-0.23043 0.3001,-0.11452 1.43339,-0.0312 1.73119,0.1272 0.1397,0.0743 0.61595,0.44782 1.05833,0.82999 1.4058,1.21445 2.06088,1.38776 4.18554,1.10737 0.74207,-0.0979 1.36306,-0.16421 1.37997,-0.14729 0.0169,0.0169 -0.34421,0.22337 -0.80252,0.45878 -1.51584,0.77864 -2.72951,1.06824 -3.46957,0.82791 z m -45.908415,-1.77605 c 0.02567,-0.0259 0.54002,-0.16469 1.143,-0.30833 4.005982,-0.9543 7.301381,-1.46148 10.341432,-1.59161 0.800675,-0.0343 1.476904,-0.0834 1.502733,-0.10927 0.132491,-0.1325 0.234745,-1.6054 0.195978,-2.82295 l -0.043,-1.35057 0.159604,0.3111 c 0.537659,1.04801 0.919019,2.83361 0.919576,4.30564 l 3.4e-4,0.8996 -3.788833,0.0467 c -2.083859,0.0257 -4.322234,0.0877 -4.974167,0.13794 -1.739575,0.13396 -4.864959,0.4215 -5.207,0.47907 -0.162983,0.0274 -0.275331,0.0286 -0.249661,0.003 z m 76.957665,-0.18106 c -3.30361,-0.33022 -4.51579,-0.394 -8.36084,-0.43987 l -3.7465,-0.0447 3.4e-4,-0.89999 c 5.6e-4,-1.46666 0.31791,-2.9823 0.87984,-4.20198 l 0.19504,-0.42333 -0.0409,1.35466 c -0.0368,1.21879 0.0667,2.69568 0.19813,2.82706 0.0258,0.0258 0.70206,0.075 1.50273,0.10927 3.04005,0.13013 6.33545,0.63731 10.34143,1.59161 0.985,0.23464 1.38915,0.36062 1.05562,0.32904 -0.066,-0.006 -0.97719,-0.097 -2.02494,-0.20177 z m -49.699337,-0.59087 c -0.793197,-0.15963 -1.640152,-0.50024 -2.369629,-0.95298 -0.673681,-0.41812 -1.805254,-1.49367 -2.268206,-2.15591 l -0.277501,-0.39696 0.825013,0.51853 c 1.559467,0.98014 3.462744,1.76292 4.897481,2.01424 0.332627,0.0583 0.986672,0.089 1.481667,0.0697 0.74069,-0.0289 0.968215,-0.0725 1.385901,-0.2655 0.536721,-0.24802 0.602352,-0.36244 0.130225,-0.22704 -0.159592,0.0458 -0.674849,0.0832 -1.145015,0.0832 -1.284628,0 -1.895079,-0.18755 -4.014603,-1.23342 -2.961288,-1.46124 -3.814428,-2.1316 -4.150969,-3.26164 -0.09581,-0.32172 -0.208962,-0.58494 -0.251446,-0.58494 -0.186683,0 -0.211602,1.20759 -0.03844,1.86267 0.05443,0.20592 0.05,0.20478 -0.163373,-0.0423 -0.368411,-0.42665 -0.729874,-1.22075 -0.728771,-1.60102 0.0024,-0.81278 0.498943,-1.94752 1.149308,-2.62628 0.444639,-0.46405 1.109581,-0.90276 1.687336,-1.11326 0.533002,-0.19419 2.112777,-0.22027 2.623351,-0.0433 0.339436,0.11764 7.068532,3.85395 7.520168,4.17554 0.151703,0.10802 0.460091,0.1952 0.836768,0.23655 0.646402,0.071 1.022752,0.27322 1.067552,0.57373 0.041,0.27502 -0.11997,0.49729 -0.60076,0.82954 l -0.441728,0.30525 0.365888,-0.0436 c 0.20124,-0.024 0.51524,-0.14246 0.69778,-0.26326 0.7697,-0.50937 1.02459,-1.39641 0.68142,-2.37144 -0.5004,-1.42176 -1.583499,-2.57228 -3.988755,-4.23706 -1.367443,-0.94647 -1.718896,-1.31782 -1.869803,-1.97565 -0.09789,-0.42672 0.05025,-1.31499 0.308344,-1.84879 0.337507,-0.69805 0.467196,-0.72296 0.272273,-0.0523 -0.09761,0.33586 -0.171835,0.8653 -0.179466,1.28019 l -0.01301,0.70749 0.430436,0.39318 c 0.236739,0.21625 0.81137,0.59555 1.276957,0.84288 1.527429,0.81142 2.996314,2.06005 4.102964,3.48772 l 0.53589,0.69135 0.14751,-0.57872 c 0.3441,-1.35 0.64844,-3.74644 0.67025,-5.27772 0.01,-0.68269 0.0139,-0.69791 0.0812,-0.29633 0.21905,1.30725 0.2936,6.05559 0.11,7.00617 l -0.045,0.23283 h 1.38498 1.38499 l -0.002,-2.7305 c -0.002,-2.81525 0.0904,-4.73373 0.21432,-4.42383 0.0372,0.0931 0.0704,0.43894 0.0736,0.76846 0.0123,1.23883 0.37594,3.87297 0.68556,4.96613 l 0.0895,0.31593 0.67358,-0.83741 c 1.13298,-1.40852 2.42139,-2.48384 4.01915,-3.3544 0.50879,-0.27723 1.08823,-0.65944 1.28763,-0.84937 l 0.36255,-0.34532 -0.005,-0.67068 c -0.003,-0.36887 -0.0718,-0.92738 -0.15367,-1.24112 -0.14006,-0.53697 -0.14023,-0.5627 -0.003,-0.43846 0.32844,0.29723 0.53252,0.97174 0.53763,1.77693 0.005,0.71516 -0.0115,0.78954 -0.23332,1.08086 -0.30379,0.39902 -0.94377,0.91967 -2.30655,1.87645 -1.73158,1.21571 -2.84584,2.45639 -3.25719,3.62676 -0.17741,0.50476 -0.21897,1.26338 -0.0881,1.60765 0.20838,0.54807 1.01664,1.15692 1.52968,1.15229 l 0.21166,-0.002 -0.19651,-0.1444 c -0.59535,-0.43744 -0.7771,-0.63696 -0.77586,-0.85166 7.2e-4,-0.12324 0.0306,-0.27021 0.0665,-0.32661 0.10859,-0.17088 0.66649,-0.36312 1.05379,-0.36312 0.28916,0 0.52279,-0.0935 1.12455,-0.45003 0.41776,-0.24751 2.14467,-1.22499 3.83758,-2.17217 3.25945,-1.82365 3.5475,-1.94599 4.58769,-1.94848 1.15065,-0.003 2.08713,0.39727 2.96747,1.26755 0.89056,0.88038 1.36946,2.15289 1.16071,3.08416 -0.0829,0.36978 -0.46652,1.02538 -0.75027,1.28217 -0.17063,0.15442 -0.17173,0.15363 -0.0888,-0.0645 0.20195,-0.53118 0.18642,-1.73899 -0.023,-1.78616 -0.0411,-0.009 -0.15662,0.23579 -0.25667,0.54456 -0.35846,1.1063 -1.15036,1.74313 -3.90439,3.13983 -2.28142,1.15702 -2.67498,1.28055 -4.10379,1.28808 -0.62865,0.003 -1.27505,-0.0233 -1.43645,-0.059 -0.27327,-0.0606 -0.28201,-0.0563 -0.127,0.0625 0.0915,0.0701 0.40859,0.20419 0.70454,0.29788 1.75673,0.55614 4.72509,-0.20374 7.40855,-1.89655 0.41248,-0.26021 0.76713,-0.47311 0.78811,-0.47311 0.021,0 -0.1333,0.22282 -0.34285,0.49514 -1.09793,1.42685 -2.43842,2.37271 -4.00688,2.82733 -0.56961,0.16509 -0.84466,0.19016 -2.01435,0.1836 -1.49065,-0.008 -2.19515,-0.14488 -3.683,-0.7137 -0.70113,-0.26805 -0.74919,-0.30499 -1.8657,-1.43399 -1.245,-1.25891 -1.66361,-1.53572 -2.57707,-1.70408 -0.27818,-0.0513 -0.64013,-0.072 -0.80434,-0.0462 l -0.29856,0.047 -0.0128,-0.45057 c -0.007,-0.24782 -0.0747,-0.57028 -0.15034,-0.71659 l -0.13756,-0.26601 h -1.09654 c -1.08983,0 -1.09743,0.001 -1.242,0.22201 -0.08,0.1221 -0.16173,0.44681 -0.1816,0.72157 l -0.0361,0.49956 -0.27058,-0.0508 c -0.38316,-0.0719 -1.27328,0.10717 -1.77779,0.35761 -0.28996,0.14394 -0.78483,0.57524 -1.529334,1.33289 -1.188321,1.20929 -1.344842,1.31106 -2.694915,1.75225 -1.481013,0.48397 -3.193727,0.62692 -4.459418,0.37221 z m 2.272603,-4.43934 c 0.350666,-0.17984 0.5923,-0.42199 0.850857,-0.85266 0.212982,-0.35476 0.227251,-0.61503 0.04237,-0.7728 -0.220076,-0.1878 -4.217133,-2.08541 -4.297509,-2.04025 -0.11189,0.0629 0.02362,1.18452 0.210238,1.74021 0.557384,1.65971 2.007628,2.53398 3.194046,1.9255 z m 21.727444,0.004 c 0.46255,-0.2046 1.08642,-0.84513 1.35213,-1.38823 0.37197,-0.76027 0.6351,-2.43261 0.36532,-2.32176 -0.6658,0.27357 -4.12397,1.97801 -4.24223,2.09089 -0.21259,0.20291 -0.12822,0.55697 0.25109,1.05374 0.58485,0.76596 1.37567,0.9626 2.27369,0.56536 z M 99.283569,141.209 c 0,-0.19437 0.785621,-1.33181 1.230181,-1.78107 0.717,-0.72459 1.22108,-0.87959 2.82157,-0.86762 0.76503,0.006 1.06945,0.0321 0.90125,0.078 -0.1397,0.0382 -0.57785,0.14994 -0.97367,0.24838 -1.23839,0.30798 -2.25834,0.87182 -3.407831,1.8839 -0.314325,0.27675 -0.5715,0.47402 -0.5715,0.43837 z m 10.752671,-0.38368 c -0.66439,-0.59677 -1.76807,-1.31901 -2.45961,-1.60956 -0.32646,-0.13717 -0.94385,-0.32584 -1.37197,-0.41928 -0.42812,-0.0934 -0.79843,-0.19066 -0.82291,-0.21606 -0.0245,-0.0254 0.54686,-0.0327 1.26965,-0.0163 1.28703,0.0293 1.32583,0.0356 1.87938,0.30815 0.35256,0.17358 0.69539,0.42617 0.91122,0.67137 0.32817,0.37282 1.13933,1.62569 1.08527,1.67623 -0.014,0.013 -0.23492,-0.16452 -0.49103,-0.39456 z M 99.819616,134.7103 c -0.673419,-0.36299 -1.132639,-0.69569 -2.689909,-1.94879 -0.701326,-0.56434 -1.370388,-1.09234 -1.486804,-1.17334 l -0.211667,-0.14727 0.254,0.0531 c 0.499306,0.10444 1.681354,0.62434 2.316843,1.01903 0.916066,0.56894 2.811381,2.48689 2.451421,2.48069 -0.0614,-0.001 -0.34663,-0.12861 -0.633884,-0.28345 z m 9.549584,0.0102 c 0.36931,-0.53161 1.64713,-1.73889 2.25726,-2.13264 0.68041,-0.43912 1.25339,-0.71058 2.05603,-0.97407 0.72902,-0.23933 0.7601,-0.22148 0.23675,0.13596 -0.2497,0.17055 -0.86832,0.65186 -1.3747,1.06958 -1.18285,0.97576 -2.0874,1.62371 -2.69639,1.93151 -0.62182,0.31427 -0.71429,0.30842 -0.47895,-0.0303 z"
       id="path1" /></g></svg>
